<svg height="512" viewBox="0 0 128 128" width="512" xmlns="http://www.w3.org/2000/svg"><g><path d="m94.626 70.043-17.71-10.943a16.691 16.691 0 0 1 -7.916-14.2v-43.153h-10v43.138a16.692 16.692 0 0 1 -7.933 14.209l-17.8 10.975a4.886 4.886 0 0 0 -1.597 6.731l.067.107a5.02 5.02 0 0 0 6.924 1.65c4.309-2.676 11.1-6.877 16.564-10.258a16.684 16.684 0 0 1 17.553 0l16.59 10.251a5 5 0 0 0 6.882-1.625 5 5 0 0 0 -1.624-6.882z" fill="#fde4e4"/><path d="m107.619 57.646-9.165-12.287a11.307 11.307 0 0 0 -20.37 6.76 72.209 72.209 0 0 1 -.392 7.458l16.934 10.466a5 5 0 0 1 -5.258 8.507l-13.568-8.39c-.237.921-.489 1.838-.762 2.749l-.135.45a72.359 72.359 0 0 0 -3.051 20.79v19.633a12.465 12.465 0 0 0 12.465 12.465h29.473a12.465 12.465 0 0 0 12.465-12.465 93.887 93.887 0 0 0 -18.636-56.136z" fill="#ff637b"/><path d="m52.967 72.909q-.409-1.365-.761-2.745c-4.783 2.959-10 6.19-13.545 8.39a5.02 5.02 0 0 1 -6.924-1.65l-.067-.104a4.886 4.886 0 0 1 1.593-6.728l17.043-10.509a72.484 72.484 0 0 1 -.39-7.444 11.307 11.307 0 0 0 -20.37-6.76l-9.165 12.287a93.887 93.887 0 0 0 -18.631 56.136 12.465 12.465 0 0 0 12.465 12.465h29.473a12.465 12.465 0 0 0 12.465-12.465v-19.633a72.359 72.359 0 0 0 -3.053-20.79z" fill="#ff637b"/><g fill="#e63950"><path d="m31.678 97.119a22.6 22.6 0 0 1 -4.213-.4l-7.665-1.449a1.75 1.75 0 1 1 .651-3.438l7.668 1.452a19.24 19.24 0 0 0 16.266-4.484l2.152-1.871a1.75 1.75 0 0 1 2.3 2.642l-2.152 1.871a22.826 22.826 0 0 1 -15.007 5.677z"/><path d="m31.678 110.825a22.6 22.6 0 0 1 -4.213-.4l-7.665-1.449a1.75 1.75 0 1 1 .651-3.438l7.668 1.452a19.24 19.24 0 0 0 16.269-4.484l2.152-1.871a1.75 1.75 0 1 1 2.3 2.641l-2.152 1.872a22.826 22.826 0 0 1 -15.01 5.677z"/><path d="m96.322 97.119a22.826 22.826 0 0 1 -15-5.677l-2.152-1.871a1.75 1.75 0 1 1 2.3-2.642l2.145 1.871a19.242 19.242 0 0 0 16.269 4.484l7.668-1.452a1.75 1.75 0 1 1 .651 3.438l-7.668 1.453a22.7 22.7 0 0 1 -4.213.396z"/><path d="m96.322 110.825a22.826 22.826 0 0 1 -15-5.677l-2.152-1.872a1.75 1.75 0 1 1 2.3-2.641l2.152 1.871a19.236 19.236 0 0 0 16.269 4.484l7.668-1.452a1.75 1.75 0 1 1 .651 3.438l-7.668 1.452a22.612 22.612 0 0 1 -4.22.397z"/></g></g></svg>