<svg height="512" viewBox="0 0 64 64" width="512" xmlns="http://www.w3.org/2000/svg"><g id="flat"><path d="m9 3h42v22h-42z" fill="#3e8051"/><path d="m16 57h32v4h-32z" fill="#32b1cc"/><g fill="#2d75bb"><path d="m18 43h4v14h-4z"/><path d="m26 43h4v14h-4z"/><path d="m34 43h4v14h-4z"/><path d="m42 43h4v14h-4z"/></g><path d="m16 39h32v4h-32z" fill="#32b1cc"/><path d="m48 39h-32l16-8z" fill="#195c85"/><path d="m10 48v-13h3l-5-5-5 5h3v17h8v-4z" fill="#e97424"/><path d="m54 48v-13h-3l5-5 5 5h-3v17h-8v-4z" fill="#e97424"/><path d="m13 7h40v20h-40z" fill="#55b56a"/><path d="m46 11h-26a3 3 0 0 1 -3 3v6a3 3 0 0 1 3 3h26a3 3 0 0 1 3-3v-6a3 3 0 0 1 -3-3z" fill="#f9bb4b"/><circle cx="23" cy="17" fill="#f4f4e6" r="2"/><circle cx="43" cy="17" fill="#f4f4e6" r="2"/><circle cx="33" cy="17" fill="#f4f4e6" r="4"/></g></svg>